<svg width="24" height="25" viewBox="0 0 24 25" fill="none" xmlns="http://www.w3.org/2000/svg">
<path d="M22.3918 23.1441L21.1501 6.78651C21.1208 6.39561 20.7944 6.09325 20.402 6.09325H3.58222C3.18982 6.09325 2.86345 6.39561 2.83419 6.78726L1.58197 23.2934C1.56621 23.5013 1.63824 23.7069 1.78004 23.8599C1.92185 24.013 2.12142 24.1 2.33 24.1H21.655C21.6595 24.1 21.6647 24.1 21.67 24.1C22.0842 24.1 22.4203 23.7639 22.4203 23.349C22.4203 23.2784 22.4105 23.2094 22.3918 23.1441ZM3.1388 22.5994L4.27773 7.59381H19.7065L20.8454 22.5994H3.1388Z" fill="black"/>
<path d="M11.992 0.100006C8.68251 0.100006 5.98975 2.79352 5.98975 6.10376V9.09438C5.98975 9.50853 6.32587 9.84466 6.74003 9.84466C7.15418 9.84466 7.49031 9.50853 7.49031 9.09438V6.10376C7.49031 3.62033 9.50932 1.60057 11.992 1.60057C14.4747 1.60057 16.4937 3.62033 16.4937 6.10376V9.09438C16.4937 9.50853 16.8298 9.84466 17.244 9.84466C17.6581 9.84466 17.9942 9.50853 17.9942 9.09438V6.10376C17.9942 2.79352 15.3015 0.100006 11.992 0.100006Z" fill="black"/>
</svg>
