<svg width="32" height="33" viewBox="0 0 32 33" fill="none" xmlns="http://www.w3.org/2000/svg">
<path d="M12 9.36829C12.5854 8.78293 15.6098 5.17317 19.9025 6.83171C19.9025 6.83171 23.0244 8.00244 23.2196 11.5146C23.2196 11.5146 23.5122 14.1488 21.4635 16.1976L12.0976 25.7585H12L2.63419 16.1976C0.487846 14.2463 0.780529 11.6122 0.780529 11.6122C1.07321 8.1 4.0976 6.92927 4.0976 6.92927C8.39029 5.17317 11.5122 8.88049 12 9.36829Z" stroke="#010101" stroke-width="1.46341" stroke-miterlimit="10"/>
<rect x="15" y="0.100006" width="17" height="17" rx="8.5" fill="#E94949"/>
<path d="M23.3095 13.1293C22.6675 13.1293 22.1206 12.9546 21.6689 12.6052C21.2172 12.2529 20.872 11.743 20.6334 11.0754C20.3947 10.4049 20.2754 9.59524 20.2754 8.64637C20.2754 7.70319 20.3947 6.89779 20.6334 6.23018C20.8749 5.55973 21.2214 5.04836 21.6731 4.69609C22.1277 4.34098 22.6731 4.16342 23.3095 4.16342C23.9459 4.16342 24.4899 4.34098 24.9416 4.69609C25.3962 5.04836 25.7428 5.55973 25.9814 6.23018C26.2229 6.89779 26.3436 7.70319 26.3436 8.64637C26.3436 9.59524 26.2243 10.4049 25.9856 11.0754C25.747 11.743 25.4018 12.2529 24.9501 12.6052C24.4984 12.9546 23.9516 13.1293 23.3095 13.1293ZM23.3095 12.1918C23.9459 12.1918 24.4402 11.885 24.7925 11.2714C25.1447 10.6577 25.3209 9.78274 25.3209 8.64637C25.3209 7.89069 25.2399 7.24723 25.078 6.71598C24.9189 6.18473 24.6888 5.7799 24.3876 5.50149C24.0893 5.22308 23.73 5.08387 23.3095 5.08387C22.6788 5.08387 22.1859 5.39495 21.8308 6.01711C21.4757 6.63643 21.2981 7.51285 21.2981 8.64637C21.2981 9.40206 21.3777 10.0441 21.5368 10.5725C21.6959 11.1009 21.9246 11.5029 22.2229 11.7785C22.524 12.054 22.8862 12.1918 23.3095 12.1918Z" fill="white"/>
</svg>
