<svg width="24" height="24" viewBox="0 0 24 24" fill="none" xmlns="http://www.w3.org/2000/svg">
<path d="M21.71 2.29C21.32 1.9 20.69 1.9 20.3 2.29L2.29 20.3C1.9 20.69 1.9 21.32 2.29 21.71C2.68 22.1 3.31 22.1 3.7 21.71L5.41 20H7V18.59L8.41 17.18L10 18.77L11.41 17.36L9.82 15.77L11.23 14.36L12.82 15.95L14.23 14.54L12.64 12.95L14.05 11.54L15.64 13.13L17.05 11.72L15.46 10.13L16.87 8.72L18.46 10.31L19.87 8.9L18.28 7.31L20 5.59V7H21.41L21.71 2.29ZM7 16H5.41L4 17.41V16H2V14H4V12H2V10H4V8H2V6H4V4.41L5.41 3H7V5H9V3H11V5H13V3H15V5H17V3H18.59L20 4.41V6H18V8H20V10H18V12H20V14H18V16H16.59L15.18 17.41H13V15H11V17H9V15H7V16Z" fill="#333"/>
</svg>
