<svg width="24" height="24" viewBox="0 0 24 24" fill="none" xmlns="http://www.w3.org/2000/svg">
<path d="M20 8H17V4C17 3.45 16.55 3 16 3H3C2.45 3 2 3.45 2 4V17H3C3 18.66 4.34 20 6 20C7.66 20 9 18.66 9 17H15C15 18.66 16.34 20 18 20C19.66 20 21 18.66 21 17H22V12L20 8ZM6 18.5C5.17 18.5 4.5 17.83 4.5 17C4.5 16.17 5.17 15.5 6 15.5C6.83 15.5 7.5 16.17 7.5 17C7.5 17.83 6.83 18.5 6 18.5ZM18 18.5C17.17 18.5 16.5 17.83 16.5 17C16.5 16.17 17.17 15.5 18 15.5C18.83 15.5 19.5 16.17 19.5 17C19.5 17.83 18.83 18.5 18 18.5ZM17 15H9.22C8.67 14.39 7.89 14 7 14H6C5.11 14 4.33 14.39 3.78 15H3V5H15V15H17ZM19 13H17V10H18.5L19 13Z" fill="#333"/>
</svg>
