<svg width="41" height="40" viewBox="0 0 41 40" fill="none" xmlns="http://www.w3.org/2000/svg">
<path d="M20.1455 1.25C30.458 1.25 38.8955 9.6875 38.8955 20C38.8955 30.3125 30.458 38.75 20.1455 38.75C9.83301 38.75 1.39551 30.3125 1.39551 20C1.39551 9.6875 9.83301 1.25 20.1455 1.25ZM20.1455 0C9.08301 0 0.145508 8.9375 0.145508 20C0.145508 31.0625 9.08301 40 20.1455 40C31.208 40 40.1455 31.0625 40.1455 20C40.1455 8.9375 31.208 0 20.1455 0Z" fill="black"/>
<path d="M20.4575 19L12.5825 15.75" stroke="black" stroke-width="1.23092" stroke-miterlimit="10" stroke-linecap="round"/>
<path d="M12.5825 19.1875V23.375L20.02 27.1875" stroke="black" stroke-width="1.23092" stroke-miterlimit="10" stroke-linecap="round"/>
<path d="M28.52 15.6875L20.3325 12.8125L12.145 15.375" stroke="black" stroke-width="1.23092" stroke-miterlimit="10" stroke-linecap="round"/>
<path d="M28.0825 19.0625V23.6875L20.3325 26.8125V19.1875L28.0825 16.0625" stroke="black" stroke-width="1.23092" stroke-miterlimit="10" stroke-linecap="round"/>
<path d="M20.0825 18.875L18.645 21.75L11.02 18.25L12.52 15.0625" stroke="black" stroke-width="1.23092" stroke-miterlimit="10" stroke-linecap="round"/>
<path d="M20.3325 18.875L21.645 21.9375L29.27 18.4375L28.145 15.3125" stroke="black" stroke-width="1.23092" stroke-miterlimit="10" stroke-linecap="round"/>
<path d="M20.3325 12.8125V17.125" stroke="black" stroke-width="1.23092" stroke-miterlimit="10" stroke-linecap="round"/>
<path d="M31.3955 11.3125C33.2705 13.75 34.3955 16.75 34.3955 20.0625C34.3955 27.9375 28.0205 34.3125 20.1455 34.3125C17.1455 34.3125 14.333 33.375 12.0205 31.75" stroke="black" stroke-width="1.23092" stroke-miterlimit="10" stroke-linecap="round"/>
<path d="M28.083 8.1875C27.208 7.5625 26.208 7.0625 25.208 6.6875C23.6455 6.0625 21.8955 5.75 20.1455 5.75C12.2705 5.8125 5.89551 12.1875 5.89551 20.0625C5.89551 23.1875 6.89551 26.125 8.64551 28.4375" stroke="black" stroke-width="1.23092" stroke-miterlimit="10" stroke-linecap="round"/>
<path d="M25.1455 9.125L28.6455 8.8125C28.833 8.8125 29.0205 8.5625 28.8955 8.375L27.6455 5.125" stroke="black" stroke-width="1.23092" stroke-miterlimit="10" stroke-linecap="round"/>
<path d="M15.208 30.9375L11.6455 31.125C11.458 31.125 11.2705 31.3125 11.3955 31.5625L12.5205 34.875" stroke="black" stroke-width="1.23092" stroke-miterlimit="10" stroke-linecap="round"/>
</svg>
