<svg width="41" height="40" viewBox="0 0 41 40" fill="none" xmlns="http://www.w3.org/2000/svg">
<path d="M12.437 25.375H11.812C11.3745 25.375 10.9995 25 10.9995 24.5625V23.875" stroke="black" stroke-width="1.23092" stroke-miterlimit="10" stroke-linecap="round"/>
<path d="M10.9375 14.6875V11.5625C10.9375 11.125 11.3125 10.75 11.75 10.75H23.125C23.5625 10.75 23.9375 11.125 23.9375 11.5625V25.375H19.4375" stroke="black" stroke-width="1.23092" stroke-miterlimit="10" stroke-linecap="round"/>
<path d="M25.0625 25.375H24V13.25H28.25C28.625 13.25 28.9375 13.375 29.1875 13.625L32.5 16.8125C32.75 17.0625 32.875 17.4375 32.875 17.75V24.4375C32.875 24.875 32.5 25.25 32.0625 25.25H31.9375" stroke="black" stroke-width="1.23092" stroke-miterlimit="10" stroke-linecap="round"/>
<path d="M27.5625 16.875L29.1875 18.5V19.9375H26.9375V16.875H27.5625ZM27.75 15.625H26.125C25.875 15.625 25.75 15.8125 25.75 16V20.75C25.75 21 25.9375 21.125 26.125 21.125H30.0625C30.3125 21.125 30.4375 20.9375 30.4375 20.75V18.25C30.4375 18 30.3125 17.8125 30.125 17.625L28.25 15.75C28.125 15.6875 27.9375 15.625 27.75 15.625Z" fill="black"/>
<path d="M10.75 16.5625H16.75" stroke="black" stroke-width="1.23092" stroke-miterlimit="10" stroke-linecap="round"/>
<path d="M9.43701 19.25H15.9995" stroke="black" stroke-width="1.23092" stroke-miterlimit="10" stroke-linecap="round"/>
<path d="M8.0625 21.9375H14.6875" stroke="black" stroke-width="1.23092" stroke-miterlimit="10" stroke-linecap="round"/>
<path d="M15.9995 25.75C16.6245 25.75 17.1245 26.25 17.1245 26.875C17.1245 27.5 16.6245 28 15.9995 28C15.3745 28 14.8745 27.5 14.8745 26.875C14.8745 26.25 15.3745 25.75 15.9995 25.75ZM15.9995 24.5C14.687 24.5 13.6245 25.5625 13.6245 26.875C13.6245 28.1875 14.687 29.25 15.9995 29.25C17.312 29.25 18.3745 28.1875 18.3745 26.875C18.3745 25.5625 17.312 24.5 15.9995 24.5Z" fill="black"/>
<path d="M28.4995 25.75C29.1245 25.75 29.6245 26.25 29.6245 26.875C29.6245 27.5 29.1245 28 28.4995 28C27.8745 28 27.3745 27.5 27.3745 26.875C27.3745 26.25 27.8745 25.75 28.4995 25.75ZM28.4995 24.5C27.187 24.5 26.1245 25.5625 26.1245 26.875C26.1245 28.1875 27.187 29.25 28.4995 29.25C29.812 29.25 30.8745 28.1875 30.8745 26.875C30.8745 25.5625 29.812 24.5 28.4995 24.5Z" fill="black"/>
<path d="M20.5 1.25C30.8125 1.25 39.25 9.6875 39.25 20C39.25 30.3125 30.8125 38.75 20.5 38.75C10.1875 38.75 1.75 30.3125 1.75 20C1.75 9.6875 10.1875 1.25 20.5 1.25ZM20.5 0C9.4375 0 0.5 8.9375 0.5 20C0.5 31.0625 9.4375 40 20.5 40C31.5625 40 40.5 31.0625 40.5 20C40.5 8.9375 31.5625 0 20.5 0Z" fill="black"/>
</svg>
