<svg width="41" height="41" viewBox="0 0 41 41" fill="none" xmlns="http://www.w3.org/2000/svg">
<path d="M20.4907 2.06689C30.8032 2.06689 39.2407 10.5044 39.2407 20.8169C39.2407 31.1294 30.8032 39.5669 20.4907 39.5669C10.1782 39.5669 1.74072 31.1294 1.74072 20.8169C1.74072 10.5044 10.1782 2.06689 20.4907 2.06689ZM20.4907 0.816895C9.42822 0.816895 0.490723 9.75439 0.490723 20.8169C0.490723 31.8794 9.42822 40.8169 20.4907 40.8169C31.5532 40.8169 40.4907 31.8794 40.4907 20.8169C40.4907 9.75439 31.5532 0.816895 20.4907 0.816895Z" fill="black"/>
<path d="M10.9902 24.3169L27.0527 31.6919C27.4277 31.8794 27.8652 31.6919 27.9902 31.3169L32.4902 21.6294C32.6777 21.2544 32.4902 20.8169 32.1152 20.6919L16.1152 13.3169C15.8652 13.1919 15.6152 13.1919 15.3652 13.3169L8.92773 16.1919C8.55273 16.3794 8.36523 16.8169 8.49023 17.1919L10.4902 23.7544C10.6152 24.0044 10.7402 24.2544 10.9902 24.3169Z" stroke="black" stroke-width="1.23092" stroke-miterlimit="10" stroke-linecap="round"/>
<path d="M13.1782 20.1294C13.9721 20.1294 14.6157 19.4858 14.6157 18.6919C14.6157 17.898 13.9721 17.2544 13.1782 17.2544C12.3843 17.2544 11.7407 17.898 11.7407 18.6919C11.7407 19.4858 12.3843 20.1294 13.1782 20.1294Z" stroke="black" stroke-width="1.23092" stroke-miterlimit="10" stroke-linecap="round"/>
<path d="M12.4281 17.4419C12.4281 17.4419 7.99057 12.2544 10.2406 10.2544C10.6156 9.94188 11.1156 9.81688 11.6156 9.94188C12.4281 10.1919 13.3031 11.1294 13.3656 13.8169" stroke="black" stroke-width="1.23092" stroke-miterlimit="10" stroke-linecap="round"/>
<path d="M22.1157 18.1294L21.8032 18.7544L20.9282 18.3169L19.6782 21.0044L18.8657 20.6294L20.1157 17.9419L19.2407 17.5669L19.5532 16.9419L22.1157 18.1294Z" fill="black"/>
<path d="M23.3032 22.0044L22.0532 21.4419L21.5532 21.9419L20.6782 21.5669L23.4282 18.8169L24.3657 19.2544L24.0532 23.1294L23.2407 22.6919L23.3032 22.0044ZM23.4282 21.2544L23.5532 19.8169L22.5532 20.8794L23.4282 21.2544Z" fill="black"/>
<path d="M26.5532 24.1919L26.3657 22.8794L25.3032 23.6294L24.3657 23.1919L26.2407 22.0044L25.9282 19.8794L26.8657 20.3169L27.0532 21.6294L28.1157 20.8794L29.0532 21.3169L27.2407 22.5044L27.5532 24.6919L26.5532 24.1919Z" fill="black"/>
<path d="M19.8657 22.3169L19.5532 22.9419L18.1782 22.3169L17.8657 23.0044L18.8657 23.5044L18.5532 24.1294L17.5532 23.6294L16.9282 25.0044L16.1157 24.6294L17.6782 21.3169L19.8657 22.3169Z" fill="black"/>
<path d="M20.4907 26.6294L20.3657 25.0669L20.1782 25.0044L19.6157 26.2544L18.7407 25.8169L20.3032 22.5044L21.6782 23.1294C21.9282 23.2544 22.1157 23.3794 22.3032 23.5669C22.4282 23.7544 22.5532 23.9419 22.5532 24.1294C22.5532 24.3169 22.5532 24.5044 22.4282 24.7544C22.3032 25.0044 22.1782 25.1294 21.9907 25.2544C21.8032 25.3794 21.5532 25.3794 21.2407 25.3794L21.4282 27.0669L20.4907 26.6294ZM20.4282 24.3794L20.9282 24.6294C21.0532 24.6919 21.1782 24.6919 21.3032 24.6919C21.4282 24.6294 21.4907 24.5669 21.5532 24.4419C21.6157 24.3169 21.6157 24.1919 21.5532 24.0669C21.4907 23.9419 21.4282 23.8794 21.2407 23.8169L20.7407 23.5669L20.4282 24.3794Z" fill="black"/>
<path d="M23.9282 24.9419L23.6157 25.6294L24.6782 26.1294L24.3657 26.7544L23.3032 26.2544L22.9907 27.0044L24.2407 27.5669L23.9282 28.1919L21.8657 27.2544L23.4282 23.9419L25.4907 24.8794L25.1782 25.5044L23.9282 24.9419Z" fill="black"/>
<path d="M26.4907 26.1294L26.1782 26.8169L27.2407 27.3169L26.9282 27.9419L25.8657 27.4419L25.5532 28.1919L26.8032 28.7544L26.4907 29.3794L24.4282 28.4419L25.9907 25.1294L28.0532 26.0669L27.7407 26.6919L26.4907 26.1294Z" fill="black"/>
</svg>
