<svg width="41" height="41" viewBox="0 0 41 41" fill="none" xmlns="http://www.w3.org/2000/svg">
<path d="M20.1528 2.06689C30.4653 2.06689 38.9028 10.5044 38.9028 20.8169C38.9028 31.1294 30.4653 39.5669 20.1528 39.5669C9.84033 39.5669 1.40283 31.1294 1.40283 20.8169C1.40283 10.5044 9.84033 2.06689 20.1528 2.06689ZM20.1528 0.816895C9.09033 0.816895 0.152832 9.75439 0.152832 20.8169C0.152832 31.8794 9.09033 40.8169 20.1528 40.8169C31.2153 40.8169 40.1528 31.8794 40.1528 20.8169C40.1528 9.75439 31.2153 0.816895 20.1528 0.816895Z" fill="black"/>
<path d="M31.1529 26.4419C31.0279 25.8794 30.6529 25.4419 30.0904 25.3169C29.7779 25.2544 29.3404 25.2544 28.9654 25.3794L27.7779 25.6919C26.5279 26.0044 25.2154 26.3794 23.9654 26.6919C23.9029 26.6919 23.8404 26.6919 23.7779 26.6919C22.9654 26.3794 22.2154 26.0669 21.4029 25.7544C20.2779 25.3169 19.2154 24.8794 18.0904 24.4419C17.0279 24.0044 15.9029 24.1294 14.9029 24.6919C14.5279 24.9419 14.0904 25.1294 13.7154 25.3794C13.5279 25.5044 13.3404 25.6294 13.1529 25.7544L12.2779 26.3169L11.8404 25.6294C11.7154 25.4419 11.5904 25.3794 11.4654 25.3169C11.3404 25.2544 11.1529 25.3169 11.0279 25.3794C10.9029 25.4419 10.5279 25.6919 10.2154 25.8794L9.34036 26.3794C9.15286 26.5044 9.02786 26.7544 9.15286 27.0044L13.4029 34.3794C13.4654 34.5044 13.5904 34.5669 13.6529 34.5669C13.7154 34.5669 13.7154 34.5669 13.7779 34.5669C13.8404 34.5669 13.9654 34.5669 14.0279 34.5044C14.4654 34.2544 15.5279 33.6294 15.7154 33.5044C16.0279 33.3169 16.1529 33.0044 15.9029 32.6919L15.5279 32.0044C16.0279 31.6919 16.5904 31.6294 17.2154 31.7544L19.4029 32.3794C20.4654 32.6919 21.5279 33.0044 22.5904 33.3169C23.2154 33.5044 23.9654 33.3794 24.4654 32.9419C25.2154 32.3169 26.0279 31.7544 26.7779 31.1294L28.5279 29.7544C29.2154 29.1919 29.9654 28.6919 30.6529 28.1294C31.1529 27.6294 31.2779 27.0669 31.1529 26.4419ZM17.6529 25.3794C19.0279 25.9419 20.4029 26.5044 21.7779 27.0044L23.5904 27.7544C23.8404 27.8794 24.1529 27.9419 24.4029 28.0669C24.6529 28.1919 24.7154 28.3794 24.7154 28.6294C24.7154 28.8794 24.5279 29.0044 24.2779 29.0669C24.1529 29.0669 24.0904 29.0669 23.9654 29.0044H23.9029C22.6529 28.7544 21.4029 28.5044 20.2154 28.2544L19.5279 28.1294C19.2154 28.0669 18.9029 28.2544 18.8404 28.5044C18.8404 28.6294 18.8404 28.8169 18.9029 28.8794C18.9654 29.0044 19.0904 29.0669 19.2779 29.1294L20.0904 29.3169C21.4029 29.5669 22.6529 29.8794 23.9654 30.1294C24.7154 30.2544 25.4029 29.8794 25.7154 29.2544C25.9654 28.6294 25.8404 27.9419 25.4029 27.5044C25.4654 27.5044 25.5279 27.4419 25.5904 27.4419L26.2154 27.2544C27.2154 27.0044 28.2154 26.7544 29.2154 26.5044C29.4029 26.4419 29.5904 26.4419 29.7154 26.4419C30.0279 26.4419 30.1529 26.6294 30.1529 26.6919C30.2154 26.8794 30.1529 27.1294 29.9654 27.2544L27.8404 28.8794C26.4654 29.9419 25.1529 30.9419 23.7779 32.0044C23.4654 32.2544 23.2154 32.3169 22.8404 32.1919C22.1529 32.0044 21.4654 31.8169 20.7154 31.5669C19.6529 31.2544 18.6529 30.9419 17.5904 30.6919C17.2154 30.5669 16.9029 30.5044 16.5279 30.5044C15.9654 30.5044 15.4654 30.6294 14.9029 30.9419L12.7154 27.1294L14.1529 26.2544C14.5279 26.0044 14.9029 25.8169 15.2779 25.5669C16.0904 25.1294 16.9029 25.0669 17.6529 25.3794ZM14.7154 32.6919L14.4654 32.8169C14.2779 32.9419 14.1529 33.0044 13.9654 33.0669L10.4029 26.8169C10.5904 26.6919 10.9029 26.5044 11.1529 26.3794L14.7154 32.6919Z" fill="black"/>
<path d="M23.6528 23.0044C20.9653 23.0044 18.7778 20.8169 18.7778 18.1294C18.7778 15.4419 20.9653 13.2544 23.6528 13.2544C26.3403 13.2544 28.5278 15.4419 28.5278 18.1294C28.5278 20.8169 26.3403 23.0044 23.6528 23.0044ZM23.6528 14.4419C21.5903 14.4419 19.9028 16.1294 19.9028 18.1919C19.9028 20.2544 21.5903 21.9419 23.6528 21.9419C25.7153 21.9419 27.4028 20.2544 27.4028 18.1919C27.4028 16.1294 25.7153 14.4419 23.6528 14.4419Z" fill="black"/>
<path d="M25.0903 18.3169C24.9653 18.1919 24.7778 18.0669 24.5903 18.0044C24.4028 17.9419 24.2153 17.8794 24.0278 17.8169C23.9028 17.7544 23.7778 17.7544 23.6528 17.6919H23.5903C23.3403 17.6294 23.2153 17.5669 22.9653 17.4419C22.9028 17.4419 22.9028 17.3794 22.8403 17.3169C22.8403 17.2544 22.8403 17.1919 22.9028 17.1294C22.9653 17.0669 23.0278 17.0044 23.0903 17.0044C23.0903 17.0044 23.1528 17.0044 23.1528 16.9419C23.4653 16.8169 23.8403 16.8169 24.1528 16.9419C24.2778 17.0044 24.3403 17.0669 24.3403 17.2544C24.3403 17.3794 24.4653 17.5044 24.5903 17.5044C24.7153 17.5044 24.9028 17.5044 25.0278 17.5044C25.0903 17.5044 25.1528 17.5044 25.2153 17.4419C25.2153 17.4419 25.2778 17.3794 25.2778 17.2544C25.2778 17.1919 25.2778 17.0669 25.2153 17.0044C25.1528 16.6919 24.9028 16.4419 24.5278 16.3169C24.4028 16.2544 24.2778 16.2544 24.1528 16.2544H24.0903C24.0903 16.1919 24.0903 16.1294 24.0903 16.1294C24.0903 16.0044 24.0278 15.9419 23.9028 15.9419C23.7778 15.9419 23.6528 15.9419 23.5278 15.9419C23.4028 15.9419 23.3403 16.0669 23.3403 16.1919C23.3403 16.2544 23.3403 16.2544 23.3403 16.3169C23.3403 16.3169 23.3403 16.3169 23.2778 16.3169H23.2153C22.9028 16.3794 22.6528 16.5044 22.4653 16.6294C22.2153 16.8169 22.0903 17.1919 22.1528 17.5044C22.1528 17.8169 22.3403 18.0669 22.5903 18.1919C22.7153 18.2544 22.9028 18.3169 23.0278 18.3794C23.1528 18.4419 23.3403 18.4419 23.4653 18.5044C23.6528 18.5669 23.7778 18.5669 23.9653 18.6294C24.1528 18.6919 24.2778 18.7544 24.4028 18.8169C24.4028 18.8169 24.4028 18.8169 24.4653 18.8169C24.5278 18.8794 24.5903 19.0044 24.5278 19.0669C24.5278 19.1919 24.3403 19.3794 24.1528 19.3794C23.9028 19.4419 23.6528 19.4419 23.3403 19.3794C23.0278 19.3169 22.9028 19.1919 22.8403 18.9419C22.8403 18.8169 22.7153 18.7544 22.5903 18.7544C22.4653 18.7544 22.3403 18.7544 22.2153 18.7544C22.1528 18.7544 22.0903 18.7544 22.0278 18.8169C21.9653 18.8794 21.9653 18.9419 21.9653 19.0044C21.9653 19.2544 22.0903 19.4419 22.2153 19.6294C22.4653 19.8794 22.7778 20.0669 23.2153 20.1294C23.2778 20.1294 23.2778 20.1294 23.2778 20.1294V20.1919V20.2544C23.2778 20.3794 23.3403 20.5044 23.4653 20.5044C23.5278 20.5044 23.5903 20.5044 23.6528 20.5044C23.7153 20.5044 23.7778 20.5044 23.8403 20.5044C23.9653 20.5044 24.0278 20.4419 24.0278 20.2544C24.0278 20.1919 24.0278 20.1919 24.0278 20.1294H24.0903C24.4028 20.0669 24.6528 20.0044 24.8403 19.8794C25.1528 19.6919 25.2778 19.4419 25.3403 19.0669C25.4028 18.8169 25.3403 18.5669 25.0903 18.3169Z" fill="black"/>
<path d="M19.6528 16.5669C17.2778 16.2544 15.4653 14.1919 15.4653 11.7544C15.4653 9.06689 17.6528 6.87939 20.3403 6.87939C23.0278 6.87939 25.2153 9.06689 25.2153 11.7544C25.2153 12.5669 25.0278 13.3169 24.6528 14.0044L23.6528 13.5044C23.9653 12.9419 24.0903 12.3794 24.0903 11.7544C24.0903 9.69189 22.4028 8.00439 20.3403 8.00439C18.2778 8.00439 16.5903 9.69189 16.5903 11.7544C16.5903 13.6294 17.9653 15.1919 19.8403 15.4419L19.6528 16.5669Z" fill="black"/>
<path d="M21.7778 11.8794C21.6528 11.7544 21.4653 11.6294 21.2778 11.5669C21.0903 11.5044 20.9028 11.4419 20.7153 11.3794C20.5903 11.3169 20.4653 11.3169 20.3403 11.2544H20.2778C20.0278 11.1919 19.9028 11.1294 19.6528 11.0044C19.5903 11.0044 19.5903 10.9419 19.5278 10.8794C19.5278 10.8169 19.5278 10.7544 19.5903 10.6919C19.6528 10.6294 19.7153 10.5669 19.7778 10.5669C19.7778 10.5669 19.8403 10.5669 19.8403 10.5044C20.1528 10.3794 20.5278 10.3794 20.8403 10.5044C20.9653 10.5669 21.0278 10.6919 21.0278 10.8169C21.0278 10.9419 21.0903 11.0669 21.2778 11.0669C21.4028 11.0669 21.5903 11.0669 21.7153 11.0669C21.7778 11.0669 21.8403 11.0669 21.9028 11.0044C21.9028 11.0044 21.9653 10.9419 21.9653 10.8169C21.9653 10.7544 21.9653 10.6294 21.9028 10.5669C21.7778 10.1919 21.5278 9.94189 21.1528 9.81689C21.0278 9.75439 20.9028 9.75439 20.7778 9.75439H20.7153C20.7153 9.69189 20.7153 9.62939 20.7153 9.62939C20.7153 9.50439 20.6528 9.44189 20.5278 9.44189C20.4028 9.44189 20.2778 9.44189 20.1528 9.44189C20.0278 9.44189 19.9653 9.56689 19.9653 9.69189C19.9653 9.75439 19.9653 9.75439 19.9653 9.81689H19.9028C19.5903 9.87939 19.3403 10.0044 19.0903 10.1294C18.8403 10.3169 18.7153 10.6919 18.7153 11.0044C18.7153 11.3169 18.9028 11.5669 19.2153 11.6919C19.4028 11.7544 19.5278 11.8169 19.6528 11.8794C19.8403 11.9419 19.9653 12.0044 20.1528 12.0044C20.3403 12.0669 20.4653 12.0669 20.6528 12.1294C20.8403 12.1919 20.9653 12.2544 21.0903 12.3169C21.0903 12.3169 21.0903 12.3169 21.1528 12.3169C21.2153 12.3794 21.2778 12.5044 21.2153 12.5669C21.2153 12.6919 21.0278 12.8794 20.8403 12.8794C20.5903 12.9419 20.2778 12.9419 20.0278 12.8794C19.7153 12.8169 19.5903 12.6294 19.5278 12.3794C19.5278 12.2544 19.4028 12.1919 19.2778 12.1919C19.1528 12.1919 19.0278 12.1919 18.9028 12.1919C18.8403 12.1919 18.7778 12.1919 18.7153 12.2544C18.6528 12.3169 18.6528 12.3794 18.6528 12.4419C18.6528 12.6919 18.7778 12.8794 18.9028 13.0669C19.1528 13.3169 19.4653 13.5044 19.9028 13.5669C19.9653 13.5669 19.9653 13.5669 19.9653 13.5669V13.6294V13.6919C19.9653 13.8169 20.0278 13.9419 20.1528 13.9419C20.2153 13.9419 20.2778 13.9419 20.3403 13.9419C20.4028 13.9419 20.4653 13.9419 20.5278 13.9419C20.6528 13.9419 20.7153 13.8794 20.7153 13.6919C20.7153 13.6294 20.7153 13.6294 20.7153 13.5669H20.7778C21.0903 13.5044 21.3403 13.4419 21.5278 13.3169C21.8403 13.1294 22.0278 12.8169 22.0278 12.5044C22.0903 12.3794 21.9653 12.0669 21.7778 11.8794Z" fill="black"/>
</svg>
